<svg id="Layer_1" data-name="Layer 1" xmlns="http://www.w3.org/2000/svg" viewBox="0 0 150 150"><defs><style>.cls-1{fill:#f2f6f8;}</style></defs><path class="cls-1" d="M139.68,67.22l-3.11,1.48a19.75,19.75,0,0,0-8.08,7c-3.19,4.79-9.4,5.73-13.48,2.11-2.09-1.85-3-4.36-3.54-7-.11-.48-.18-1-.32-1.7a12.91,12.91,0,0,0,2.23,11c2.58,3.08,6.17,4.09,10.1,4.69a55.54,55.54,0,0,1-9.24,11.28C105.45,104.37,94.87,109,83.07,111c-15.73,2.68-31.2.84-46.55-2.85-3.21-.77-6.38-1.69-9.9-2.62L47.8,104.2l0-.25c-4.19-.18-8.39-.23-12.57-.56s-8.4-.81-12.55-1.49-8.29-1.67-12.35-2.66c2.79,0,5.58,0,8.37,0,11.14.18,22.18-.53,32.94-3.64,7.16-2.06,13.9-5,19.27-10.37,6.61-6.6,7.87-15.07,3.44-23.31S62.93,48.31,54.68,44.37a78.49,78.49,0,0,0-17.16-5.66c.79-.11,1.57-.25,2.36-.33s1.6-.14,2.4-.2c13.17-1,26.19-.54,38.76,4,9.3,3.38,17.14,8.75,22.55,17.23,1.09,1.72,1.92,3.61,2.83,5.34,1.66-1.75,3.25-3.69,5.1-5.33,5.5-4.88,11-4.49,15.9,1a11.4,11.4,0,0,1,2,2.64c.69,1.5,1.86,1.8,3.3,2,2.35.41,4.67,1,7,1.58Z"/><path class="cls-1" d="M63,87.36c1.42-6.56-.36-11.94-3.71-17A39.73,39.73,0,0,0,47.18,58.85a64.11,64.11,0,0,0-21.59-8.42A5.53,5.53,0,0,1,24.2,50a101.31,101.31,0,0,1,21-.81c4.58.41,9.14,1.15,13.7,1.76a2.63,2.63,0,0,1,1.27.42c5.49,4,10.08,8.82,12.2,15.44,2.31,7.19-.39,12.94-5.71,17.76C65.6,85.46,64.45,86.24,63,87.36Z"/></svg>